# xmcd
#
# Track frame offsets: 
#        150
#        15697
#        31705
#        45228
#        56666
#        66671
#        80853
#        93040
#
# Disc length: 1405 seconds
#
# Revision: 0
# Processed by: cddbd v1.5.1PL2 Copyright (c) Steve Scherf et al.
# Submitted via: ExactAudioCopy v0.95a5
#
DISCID=5e057b08
DTITLE=Lorrie Morgan - Two People In Love
DYEAR=2006
DGENRE=Country
TTITLE0=Two People In Love
TTITLE1=In For Rain
TTITLE2=Making Love For The First Time
TTITLE3=Tell Me I'm Only Dreaming
TTITLE4=I Love How You Love Me
TTITLE5=Let It be Yesterday
TTITLE6=I Don't Care
TTITLE7=The First few Days Of Love
EXTD=
EXTT0=
EXTT1=
EXTT2=
EXTT3=
EXTT4=
EXTT5=
EXTT6=
EXTT7=
PLAYORDER=
